<?xml version="1.0" encoding="UTF-8" standalone="no"?>
<svg
   height="48"
   width="48"
   version="1.1"
   id="svg10"
   sodipodi:docname="app-outlet.svg"
   inkscape:version="1.2.2 (b0a8486541, 2022-12-01)"
   xmlns:inkscape="http://www.inkscape.org/namespaces/inkscape"
   xmlns:sodipodi="http://sodipodi.sourceforge.net/DTD/sodipodi-0.dtd"
   xmlns="http://www.w3.org/2000/svg"
   xmlns:svg="http://www.w3.org/2000/svg">
  <defs
     id="defs14" />
  <sodipodi:namedview
     id="namedview12"
     pagecolor="#ffffff"
     bordercolor="#666666"
     borderopacity="1.0"
     inkscape:pageshadow="2"
     inkscape:pageopacity="0.0"
     inkscape:pagecheckerboard="0"
     showgrid="false"
     inkscape:zoom="4.125"
     inkscape:cx="7.8787879"
     inkscape:cy="74.666667"
     inkscape:window-width="1920"
     inkscape:window-height="999"
     inkscape:window-x="0"
     inkscape:window-y="0"
     inkscape:window-maximized="1"
     inkscape:current-layer="svg10"
     inkscape:showpageshadow="2"
     inkscape:deskcolor="#d1d1d1" />
  <g
     fill="#626c97"
     opacity=".99"
     transform="matrix(1.1503549 0 0 1.1503549 -4.486125 -7.525565)"
     id="g6">
    <path
       d="m44.322082 27.405077a19.729762 19.729765 0 0 1 -19.729762 19.729765 19.729762 19.729765 0 0 1 -19.7297621-19.729765 19.729762 19.729765 0 0 1 19.7297621-19.7297632 19.729762 19.729765 0 0 1 19.729762 19.7297632z"
       id="path2" />
    <path
       id="path4"
       style="stroke-width:1.15035;fill:#8690ba;fill-opacity:1"
       d="M 23.804688 1.3046875 A 22.696228 22.696232 0 0 0 1.1074219 24 A 22.696228 22.696232 0 0 0 23.804688 46.695312 A 22.696228 22.696232 0 0 0 46.5 24 A 22.696228 22.696232 0 0 0 23.804688 1.3046875 z "
       transform="matrix(0.86929694,0,0,0.86929694,3.8997748,6.5419507)" />
  </g>
  <path
     id="path8"
     style="fill:#ffffff;fill-opacity:1;stroke:none;stroke-width:0.461059;stroke-dasharray:none;stroke-opacity:1"
     d="M 12.190289,12.774999 10.57646,33.755942 c 0,0 -1.09e-4,1.614221 1.613829,1.614221 h 22.595163 c 1.613939,0 1.614219,-1.614221 1.614219,-1.614221 L 34.785452,12.774999 Z m 5.648789,3.227655 a 2.4209099,2.4209099 0 0 1 2.421135,2.421135 2.4209099,2.4209099 0 0 1 -1.197835,2.083094 c 0.136236,0.520734 0.307892,1.084859 0.534677,1.651823 0.377648,0.944115 0.89386,1.860591 1.536272,2.503001 0.64241,0.642406 1.368252,1.024702 2.354542,1.024702 0.986297,0 1.712529,-0.382296 2.354936,-1.024702 0.642412,-0.64241 1.158624,-1.558886 1.536272,-2.503001 0.226785,-0.566964 0.398441,-1.131089 0.534677,-1.651823 a 2.4209099,2.4209099 0 0 1 -1.197835,-2.083094 2.4209099,2.4209099 0 0 1 2.420742,-2.421135 2.4209099,2.4209099 0 0 1 2.421135,2.421135 2.4209099,2.4209099 0 0 1 -2.052149,2.390972 c -0.154341,0.601497 -0.359125,1.270329 -0.628295,1.943255 -0.429322,1.073298 -1.022854,2.174469 -1.893506,3.04512 -0.870654,0.870658 -2.061364,1.497103 -3.495977,1.497103 -1.434607,0 -2.624932,-0.626445 -3.495581,-1.497103 -0.870657,-0.870651 -1.464187,-1.971822 -1.893508,-3.04512 -0.26917,-0.672926 -0.473955,-1.341758 -0.628297,-1.943255 a 2.4209099,2.4209099 0 0 1 -2.052147,-2.390972 2.4209099,2.4209099 0 0 1 2.420742,-2.421135 z" />
</svg>
